<svg width="18" height="40" fill="none" xmlns="http://www.w3.org/2000/svg"><path d="M7.911 5.24c1.334 0 2.347.16 3.04.48a9.983 9.983 0 0 1 1.84 1c.32.187.574.333.76.44.214.08.414.12.6.12.267 0 .454-.147.56-.44.134-.293.24-.733.32-1.32h.92c-.026.453-.066 1-.12 1.64-.026.613-.053 1.44-.08 2.48v4.04h-.92c-.08-1.28-.36-2.507-.84-3.68s-1.186-2.133-2.12-2.88C10.965 6.373 9.765 6 8.271 6c-1.413 0-2.586.427-3.52 1.28-.906.853-1.36 1.973-1.36 3.36 0 .907.174 1.693.52 2.36.374.667.867 1.28 1.48 1.84.64.533 1.36 1.053 2.16 1.56.8.48 1.654 1 2.56 1.56a36.632 36.632 0 0 1 3.68 2.56c1.094.827 1.947 1.747 2.56 2.76.64 1.013.96 2.24.96 3.68 0 1.707-.386 3.12-1.16 4.24-.773 1.12-1.8 1.96-3.08 2.52s-2.693.84-4.24.84c-1.413 0-2.533-.16-3.36-.48a14.435 14.435 0 0 1-2.12-1c-.32-.213-.586-.36-.8-.44a1.63 1.63 0 0 0-.56-.12c-.266 0-.466.147-.6.44-.106.293-.2.733-.28 1.32h-.92c.054-.56.08-1.213.08-1.96.027-.773.04-1.773.04-3 .027-1.227.04-2.773.04-4.64h.92c.08 1.2.267 2.347.56 3.44.294 1.093.72 2.067 1.28 2.92.56.853 1.28 1.52 2.16 2 .907.48 2 .72 3.28.72.88 0 1.707-.173 2.48-.52a4.68 4.68 0 0 0 1.96-1.72c.507-.8.76-1.827.76-3.08 0-.8-.146-1.533-.44-2.2a6.035 6.035 0 0 0-1.28-1.84 14.307 14.307 0 0 0-2-1.64 37.895 37.895 0 0 0-2.52-1.64 53.797 53.797 0 0 1-3.52-2.36c-1.093-.8-1.973-1.72-2.64-2.76-.64-1.067-.96-2.347-.96-3.84 0-1.573.347-2.867 1.04-3.88A6.308 6.308 0 0 1 4.231 6a9.003 9.003 0 0 1 3.68-.76ZM7.311.4v38.88h-.8V.4h.8Zm3.36 0v38.88h-.8V.4h.8Z" fill="#E4E4E4"/></svg>