<svg width="61" height="15" fill="none" xmlns="http://www.w3.org/2000/svg"><path d="M9.048 2.94c-.094.153-.19.267-.29.34a.624.624 0 0 1-.37.1.975.975 0 0 1-.481-.15 8.374 8.374 0 0 0-.59-.34 5.39 5.39 0 0 0-.781-.33 3.016 3.016 0 0 0-1.031-.16c-.694 0-1.214.157-1.561.47-.347.307-.52.71-.52 1.21 0 .32.093.587.28.8.193.207.443.387.75.54.314.153.667.29 1.06.41.395.12.798.253 1.212.4.414.14.817.307 1.211.5a4.17 4.17 0 0 1 1.05.73c.314.293.565.653.752 1.08.193.42.29.933.29 1.54 0 .66-.117 1.28-.35 1.86a4.4 4.4 0 0 1-.991 1.51c-.434.427-.971.763-1.612 1.01-.634.247-1.354.37-2.162.37-.46 0-.92-.047-1.38-.14a8.128 8.128 0 0 1-1.322-.39 7.38 7.38 0 0 1-1.191-.6 5.254 5.254 0 0 1-.98-.78l.88-1.42a.842.842 0 0 1 .29-.26.719.719 0 0 1 .38-.11c.18 0 .37.067.571.2.2.133.43.28.69.44.26.16.561.307.901.44.347.133.761.2 1.241.2.701 0 1.242-.16 1.622-.48.387-.32.58-.797.58-1.43 0-.367-.096-.663-.29-.89a2.237 2.237 0 0 0-.74-.57 5.669 5.669 0 0 0-1.051-.39 40.25 40.25 0 0 1-1.211-.37 9.941 9.941 0 0 1-1.212-.48 3.747 3.747 0 0 1-1.05-.74A3.57 3.57 0 0 1 .89 5.92C.704 5.467.61 4.903.61 4.23a4.005 4.005 0 0 1 1.26-2.92A4.72 4.72 0 0 1 3.394.36C4 .12 4.694 0 5.475 0c.874 0 1.681.137 2.422.41.747.267 1.378.64 1.892 1.12l-.741 1.41ZM27.84 7.41c0 1.06-.18 2.043-.54 2.95a6.812 6.812 0 0 1-1.512 2.35 6.996 6.996 0 0 1-2.342 1.56c-.914.373-1.929.56-3.043.56s-2.128-.187-3.042-.56a7.109 7.109 0 0 1-2.352-1.56 6.935 6.935 0 0 1-1.522-2.35c-.353-.907-.53-1.89-.53-2.95 0-1.06.177-2.04.53-2.94.36-.907.868-1.69 1.522-2.35A6.984 6.984 0 0 1 17.36.57C18.275.19 19.289 0 20.403 0c1.114 0 2.129.19 3.043.57a6.803 6.803 0 0 1 2.342 1.56 6.813 6.813 0 0 1 1.511 2.35c.36.9.54 1.877.54 2.93Zm-3.073 0c0-.76-.1-1.44-.3-2.04-.2-.607-.49-1.12-.871-1.54a3.597 3.597 0 0 0-1.371-.97c-.534-.227-1.141-.34-1.822-.34-.68 0-1.29.113-1.831.34-.54.22-1.001.543-1.381.97-.374.42-.661.933-.861 1.54-.2.6-.3 1.28-.3 2.04 0 .767.1 1.453.3 2.06.2.6.487 1.11.86 1.53.38.42.841.743 1.382.97.54.22 1.15.33 1.831.33.68 0 1.288-.11 1.822-.33.54-.227.997-.55 1.371-.97.38-.42.67-.93.87-1.53.2-.607.301-1.293.301-2.06ZM40.251 12.23v2.44h-8.617V.16h3.002v12.07h5.615ZM46.716 14.67h-3.023V.16h3.023v14.51ZM59.221 2.94a1.17 1.17 0 0 1-.29.34.624.624 0 0 1-.37.1.975.975 0 0 1-.48-.15 8.385 8.385 0 0 0-.591-.34 5.39 5.39 0 0 0-.78-.33 3.016 3.016 0 0 0-1.032-.16c-.694 0-1.214.157-1.561.47-.347.307-.52.71-.52 1.21 0 .32.093.587.28.8.193.207.443.387.75.54.314.153.668.29 1.061.41.394.12.798.253 1.211.4.414.14.818.307 1.211.5a4.17 4.17 0 0 1 1.051.73c.314.293.564.653.75 1.08.194.42.291.933.291 1.54 0 .66-.117 1.28-.35 1.86a4.401 4.401 0 0 1-.991 1.51c-.434.427-.97.763-1.611 1.01-.634.247-1.355.37-2.162.37-.46 0-.921-.047-1.382-.14a8.128 8.128 0 0 1-1.32-.39 7.384 7.384 0 0 1-1.192-.6 5.25 5.25 0 0 1-.98-.78l.88-1.42a.842.842 0 0 1 .29-.26.718.718 0 0 1 .38-.11c.181 0 .371.067.571.2.2.133.43.28.691.44.26.16.56.307.9.44.348.133.761.2 1.242.2.7 0 1.24-.16 1.621-.48.387-.32.58-.797.58-1.43 0-.367-.096-.663-.29-.89a2.237 2.237 0 0 0-.74-.57 5.667 5.667 0 0 0-1.051-.39 40.23 40.23 0 0 1-1.211-.37 9.943 9.943 0 0 1-1.211-.48 3.75 3.75 0 0 1-1.051-.74 3.57 3.57 0 0 1-.75-1.14c-.188-.453-.281-1.017-.281-1.69a4.005 4.005 0 0 1 1.261-2.92 4.72 4.72 0 0 1 1.521-.95C54.174.12 54.867 0 55.648 0c.874 0 1.682.137 2.422.41.748.267 1.378.64 1.892 1.12l-.74 1.41Z" fill="#fff"/></svg>