
<svg width="108" height="32" fill="none" xmlns="http://www.w3.org/2000/svg"><path d="M56.048 11.94a1.17 1.17 0 0 1-.29.34.624.624 0 0 1-.37.1.975.975 0 0 1-.481-.15 8.35 8.35 0 0 0-.59-.34 5.39 5.39 0 0 0-.781-.33 3.016 3.016 0 0 0-1.031-.16c-.694 0-1.215.157-1.562.47-.346.307-.52.71-.52 1.21 0 .32.093.587.28.8.194.207.444.387.751.54.314.153.667.29 1.06.41.395.12.798.253 1.212.4.414.14.817.307 1.211.5.394.193.744.437 1.05.73.314.293.565.653.752 1.08.193.42.29.933.29 1.54 0 .66-.117 1.28-.35 1.86a4.4 4.4 0 0 1-.991 1.51c-.434.427-.971.763-1.612 1.01-.634.247-1.354.37-2.162.37-.46 0-.92-.047-1.38-.14a8.128 8.128 0 0 1-1.322-.39 7.381 7.381 0 0 1-1.191-.6 5.254 5.254 0 0 1-.98-.78l.88-1.42a.841.841 0 0 1 .29-.26.719.719 0 0 1 .38-.11c.18 0 .37.067.571.2.2.133.43.28.69.44.26.16.561.307.901.44.347.133.761.2 1.241.2.701 0 1.242-.16 1.622-.48.387-.32.58-.797.58-1.43 0-.367-.096-.663-.29-.89a2.237 2.237 0 0 0-.74-.57 5.672 5.672 0 0 0-1.051-.39 40.32 40.32 0 0 1-1.212-.37 9.926 9.926 0 0 1-1.21-.48 3.746 3.746 0 0 1-1.051-.74 3.57 3.57 0 0 1-.751-1.14c-.187-.453-.28-1.017-.28-1.69a4.005 4.005 0 0 1 1.26-2.92 4.72 4.72 0 0 1 1.522-.95C51 9.12 51.694 9 52.475 9c.874 0 1.681.137 2.422.41.747.267 1.378.64 1.892 1.12l-.741 1.41ZM74.84 16.41c0 1.06-.18 2.043-.54 2.95a6.812 6.812 0 0 1-1.512 2.35 6.996 6.996 0 0 1-2.342 1.56c-.914.373-1.928.56-3.043.56-1.114 0-2.128-.187-3.042-.56a7.109 7.109 0 0 1-2.352-1.56 6.935 6.935 0 0 1-1.522-2.35c-.353-.907-.53-1.89-.53-2.95 0-1.06.177-2.04.53-2.94.36-.907.868-1.69 1.522-2.35a6.984 6.984 0 0 1 2.352-1.55c.914-.38 1.928-.57 3.042-.57 1.114 0 2.129.19 3.043.57a6.802 6.802 0 0 1 2.342 1.56 6.812 6.812 0 0 1 1.511 2.35c.36.9.54 1.877.54 2.93Zm-3.073 0c0-.76-.1-1.44-.3-2.04-.2-.607-.49-1.12-.871-1.54a3.597 3.597 0 0 0-1.371-.97c-.534-.227-1.141-.34-1.822-.34-.68 0-1.29.113-1.831.34-.54.22-1.001.543-1.382.97-.373.42-.66.933-.86 1.54-.2.6-.3 1.28-.3 2.04 0 .767.1 1.453.3 2.06.2.6.487 1.11.86 1.53.38.42.841.743 1.382.97.54.22 1.15.33 1.831.33.68 0 1.288-.11 1.822-.33.54-.227.997-.55 1.371-.97.38-.42.67-.93.87-1.53.2-.607.301-1.293.301-2.06ZM87.251 21.23v2.44h-8.617V9.16h3.002v12.07h5.615ZM93.716 23.67h-3.023V9.16h3.023v14.51ZM106.221 11.94c-.093.153-.19.267-.29.34a.623.623 0 0 1-.37.1.978.978 0 0 1-.481-.15 8.353 8.353 0 0 0-.59-.34 5.38 5.38 0 0 0-.781-.33 3.013 3.013 0 0 0-1.031-.16c-.694 0-1.214.157-1.561.47-.347.307-.521.71-.521 1.21 0 .32.094.587.281.8.193.207.443.387.75.54.314.153.668.29 1.061.41.394.12.798.253 1.211.4a10 10 0 0 1 1.211.5c.394.193.744.437 1.051.73.314.293.564.653.751 1.08.193.42.29.933.29 1.54 0 .66-.117 1.28-.35 1.86a4.399 4.399 0 0 1-.991 1.51 4.646 4.646 0 0 1-1.611 1.01c-.634.247-1.355.37-2.162.37-.461 0-.921-.047-1.381-.14a8.125 8.125 0 0 1-1.322-.39 7.384 7.384 0 0 1-1.19-.6 5.25 5.25 0 0 1-.981-.78l.88-1.42a.842.842 0 0 1 .29-.26.718.718 0 0 1 .38-.11c.181 0 .371.067.571.2.2.133.43.28.691.44.26.16.56.307.901.44.347.133.76.2 1.241.2.7 0 1.241-.16 1.621-.48.387-.32.581-.797.581-1.43 0-.367-.097-.663-.291-.89a2.225 2.225 0 0 0-.74-.57 5.667 5.667 0 0 0-1.051-.39 40.23 40.23 0 0 1-1.211-.37 9.884 9.884 0 0 1-1.211-.48 3.75 3.75 0 0 1-1.051-.74 3.57 3.57 0 0 1-.75-1.14c-.188-.453-.281-1.017-.281-1.69a4.005 4.005 0 0 1 1.261-2.92c.414-.393.92-.71 1.521-.95.608-.24 1.302-.36 2.082-.36.874 0 1.682.137 2.422.41.748.267 1.378.64 1.892 1.12l-.741 1.41Z" fill="#fff"/><path fill-rule="evenodd" clip-rule="evenodd" d="m21.094 4.75 2.426 2.424L30.7 0h-4.915l-4.691 4.75Zm10.933 3.362L28.6 4.75l3.427-3.424v6.786ZM6.08 19.749l6.178-6.173 2.426 2.423-6.178 6.174-2.426-2.424Zm15.01.002 6.18-6.174 2.425 2.424-6.178 6.173-2.426-2.424Zm-5.08-2.425-2.425 2.424 6.178 6.173 2.426-2.424-6.178-6.173Zm-3.748 3.75 6.18 6.174-2.427 2.487-6.18-6.237 2.427-2.424Zm18.828-3.75.938.937v4.849L28.6 19.75l2.49-2.424ZM2.326 15.999l6.179-6.174 2.426 2.424-6.179 6.174-2.426-2.424Zm21.19-6.172L17.337 16l2.426 2.424 6.18-6.173-2.427-2.424Zm3.757-3.751 4.754 4.687v4.849L24.847 8.5l2.426-2.424ZM13.587 4.75l6.18 6.174L22.193 8.5l-6.18-6.237-2.426 2.487Zm-1.329 1.327L9.832 8.5l6.179 6.173 2.426-2.424-6.179-6.173ZM25.947 27.25l-2.427-2.424L16.402 32h4.853l4.692-4.75ZM12.26 28.576l2.426 2.486-.938.938H8.896l3.364-3.424Zm-1.327-1.326-2.427-2.424L1.327 32h4.915l4.692-4.75Zm13.913-3.75 2.426-2.424 4.754 4.687v4.911l-7.18-7.174ZM0 23.888v6.786l3.427-3.424L0 23.888ZM23.909 32l3.364-3.424L30.701 32h-6.792ZM17.34.937l2.427 2.487L23.132 0h-4.853l-.939.938ZM8.12 0 4.754 3.424 1.327 0h6.792ZM4.754 25.924 7.18 23.5 0 16.388v4.849l4.754 4.687Zm3.753-18.75L6.081 4.75 10.772 0h4.853L8.507 7.174Zm-3.753 3.75L7.18 8.5 0 1.326v4.91l4.754 4.688ZM3.427 12.25.938 14.674 0 13.737V8.888l3.427 3.362Z" fill="#fff"/></svg>