<svg width="194" height="34" viewBox="0 0 194 34" fill="none" xmlns="http://www.w3.org/2000/svg">
<path d="M44.132 30.0001C43.712 30.0001 43.362 29.8601 43.082 29.5801C42.8254 29.3001 42.697 28.9618 42.697 28.5651V6.9001C42.697 6.50343 42.8254 6.17676 43.082 5.9201C43.362 5.6401 43.7004 5.5001 44.097 5.5001H56.382C56.7787 5.5001 57.117 5.62843 57.397 5.8851C57.677 6.14176 57.817 6.46843 57.817 6.8651C57.817 7.23843 57.677 7.55343 57.397 7.8101C57.117 8.06676 56.7787 8.1951 56.382 8.1951H45.357L45.567 7.9151V16.4901L45.392 16.1051H54.807C55.2037 16.1051 55.542 16.2451 55.822 16.5251C56.102 16.7818 56.242 17.1084 56.242 17.5051C56.242 17.8551 56.102 18.1701 55.822 18.4501C55.542 18.7068 55.2037 18.8351 54.807 18.8351H45.322L45.567 18.5201V28.5651C45.567 28.9618 45.427 29.3001 45.147 29.5801C44.867 29.8601 44.5287 30.0001 44.132 30.0001Z" fill="#16133D"/>
<path d="M63.0894 30.0001C62.6928 30.0001 62.3544 29.8601 62.0744 29.5801C61.8178 29.3001 61.6894 28.9618 61.6894 28.5651V13.3051C61.6894 12.9084 61.8178 12.5818 62.0744 12.3251C62.3544 12.0451 62.6928 11.9051 63.0894 11.9051C63.5094 11.9051 63.8478 12.0451 64.1044 12.3251C64.3611 12.5818 64.4894 12.9084 64.4894 13.3051V17.9251L64.0694 17.1901C64.2094 16.4668 64.4544 15.7668 64.8044 15.0901C65.1778 14.3901 65.6444 13.7718 66.2044 13.2351C66.7644 12.6751 67.4061 12.2434 68.1294 11.9401C68.8528 11.6134 69.6461 11.4501 70.5094 11.4501C71.0228 11.4501 71.4894 11.5784 71.9094 11.8351C72.3528 12.0684 72.5744 12.4068 72.5744 12.8501C72.5744 13.3401 72.4461 13.7018 72.1894 13.9351C71.9328 14.1684 71.6411 14.2851 71.3144 14.2851C71.0111 14.2851 70.7194 14.2268 70.4394 14.1101C70.1594 13.9701 69.8094 13.9001 69.3894 13.9001C68.8061 13.9001 68.2228 14.0634 67.6394 14.3901C67.0794 14.6934 66.5544 15.1368 66.0644 15.7201C65.5978 16.3034 65.2128 16.9684 64.9094 17.7151C64.6294 18.4384 64.4894 19.2201 64.4894 20.0601V28.5651C64.4894 28.9618 64.3494 29.3001 64.0694 29.5801C63.8128 29.8601 63.4861 30.0001 63.0894 30.0001Z" fill="#16133D"/>
<path d="M83.3162 30.3501C81.4495 30.3501 79.8162 29.9534 78.4162 29.1601C77.0162 28.3668 75.9195 27.2818 75.1262 25.9051C74.3562 24.5051 73.9712 22.8951 73.9712 21.0751C73.9712 19.0451 74.3678 17.3184 75.1612 15.8951C75.9778 14.4484 77.0278 13.3518 78.3112 12.6051C79.6178 11.8351 80.9945 11.4501 82.4412 11.4501C83.5145 11.4501 84.5528 11.6484 85.5562 12.0451C86.5595 12.4418 87.4462 13.0251 88.2162 13.7951C88.9862 14.5418 89.6045 15.4518 90.0712 16.5251C90.5378 17.5751 90.7828 18.7534 90.8062 20.0601C90.8062 20.4334 90.6662 20.7484 90.3862 21.0051C90.1062 21.2618 89.7795 21.3901 89.4062 21.3901H75.5812L74.9512 18.9751H88.4262L87.8662 19.4651V18.6951C87.7728 17.7384 87.4462 16.9218 86.8862 16.2451C86.3495 15.5451 85.6845 15.0084 84.8912 14.6351C84.1212 14.2618 83.3045 14.0751 82.4412 14.0751C81.7412 14.0751 81.0412 14.2034 80.3412 14.4601C79.6645 14.6934 79.0462 15.0901 78.4862 15.6501C77.9495 16.1868 77.5062 16.8868 77.1562 17.7501C76.8295 18.6134 76.6662 19.6518 76.6662 20.8651C76.6662 22.2184 76.9345 23.4084 77.4712 24.4351C78.0312 25.4618 78.8012 26.2784 79.7812 26.8851C80.7612 27.4684 81.9045 27.7601 83.2112 27.7601C84.0278 27.7601 84.7395 27.6551 85.3462 27.4451C85.9528 27.2351 86.4778 26.9784 86.9212 26.6751C87.3645 26.3484 87.7378 26.0218 88.0412 25.6951C88.3445 25.4851 88.6362 25.3801 88.9162 25.3801C89.2662 25.3801 89.5462 25.4968 89.7562 25.7301C89.9895 25.9634 90.1062 26.2434 90.1062 26.5701C90.1062 26.9668 89.9195 27.3168 89.5462 27.6201C88.8928 28.3434 88.0062 28.9851 86.8862 29.5451C85.7662 30.0818 84.5762 30.3501 83.3162 30.3501Z" fill="#16133D"/>
<path d="M103.38 30.3501C101.513 30.3501 99.8796 29.9534 98.4796 29.1601C97.0796 28.3668 95.983 27.2818 95.1896 25.9051C94.4196 24.5051 94.0346 22.8951 94.0346 21.0751C94.0346 19.0451 94.4313 17.3184 95.2246 15.8951C96.0413 14.4484 97.0913 13.3518 98.3746 12.6051C99.6813 11.8351 101.058 11.4501 102.505 11.4501C103.578 11.4501 104.616 11.6484 105.62 12.0451C106.623 12.4418 107.51 13.0251 108.28 13.7951C109.05 14.5418 109.668 15.4518 110.135 16.5251C110.601 17.5751 110.846 18.7534 110.87 20.0601C110.87 20.4334 110.73 20.7484 110.45 21.0051C110.17 21.2618 109.843 21.3901 109.47 21.3901H95.6446L95.0146 18.9751H108.49L107.93 19.4651V18.6951C107.836 17.7384 107.51 16.9218 106.95 16.2451C106.413 15.5451 105.748 15.0084 104.955 14.6351C104.185 14.2618 103.368 14.0751 102.505 14.0751C101.805 14.0751 101.105 14.2034 100.405 14.4601C99.728 14.6934 99.1096 15.0901 98.5496 15.6501C98.013 16.1868 97.5696 16.8868 97.2196 17.7501C96.893 18.6134 96.7296 19.6518 96.7296 20.8651C96.7296 22.2184 96.998 23.4084 97.5346 24.4351C98.0946 25.4618 98.8646 26.2784 99.8446 26.8851C100.825 27.4684 101.968 27.7601 103.275 27.7601C104.091 27.7601 104.803 27.6551 105.41 27.4451C106.016 27.2351 106.541 26.9784 106.985 26.6751C107.428 26.3484 107.801 26.0218 108.105 25.6951C108.408 25.4851 108.7 25.3801 108.98 25.3801C109.33 25.3801 109.61 25.4968 109.82 25.7301C110.053 25.9634 110.17 26.2434 110.17 26.5701C110.17 26.9668 109.983 27.3168 109.61 27.6201C108.956 28.3434 108.07 28.9851 106.95 29.5451C105.83 30.0818 104.64 30.3501 103.38 30.3501Z" fill="#16133D"/>
<path d="M123.828 11.6251C125.368 11.6251 126.581 11.9634 127.468 12.6401C128.378 13.2934 129.02 14.1801 129.393 15.3001C129.79 16.3968 129.988 17.6218 129.988 18.9751V28.5651C129.988 28.9618 129.848 29.3001 129.568 29.5801C129.311 29.8601 128.985 30.0001 128.588 30.0001C128.191 30.0001 127.853 29.8601 127.573 29.5801C127.316 29.3001 127.188 28.9618 127.188 28.5651V18.9751C127.188 18.0884 127.06 17.2951 126.803 16.5951C126.546 15.8718 126.115 15.3001 125.508 14.8801C124.925 14.4368 124.12 14.2151 123.093 14.2151C122.136 14.2151 121.261 14.4368 120.468 14.8801C119.675 15.3001 119.045 15.8718 118.578 16.5951C118.111 17.2951 117.878 18.0884 117.878 18.9751V28.5651C117.878 28.9618 117.738 29.3001 117.458 29.5801C117.201 29.8601 116.875 30.0001 116.478 30.0001C116.081 30.0001 115.743 29.8601 115.463 29.5801C115.206 29.3001 115.078 28.9618 115.078 28.5651V5.5001C115.078 5.10343 115.206 4.77676 115.463 4.5201C115.743 4.2401 116.081 4.1001 116.478 4.1001C116.898 4.1001 117.236 4.2401 117.493 4.5201C117.75 4.77676 117.878 5.10343 117.878 5.5001V15.9651L117.178 16.7351C117.295 16.1284 117.551 15.5218 117.948 14.9151C118.345 14.2851 118.846 13.7251 119.453 13.2351C120.06 12.7451 120.736 12.3601 121.483 12.0801C122.23 11.7768 123.011 11.6251 123.828 11.6251Z" fill="#16133D"/>
<path d="M150.086 11.7301C150.482 11.7301 150.809 11.8701 151.066 12.1501C151.346 12.4068 151.486 12.7334 151.486 13.1301V28.5651C151.486 28.9618 151.346 29.3001 151.066 29.5801C150.809 29.8601 150.482 30.0001 150.086 30.0001C149.666 30.0001 149.327 29.8601 149.071 29.5801C148.814 29.3001 148.686 28.9618 148.686 28.5651V25.2401L149.351 25.1701C149.351 25.6834 149.176 26.2434 148.826 26.8501C148.476 27.4568 147.997 28.0284 147.391 28.5651C146.784 29.0784 146.061 29.5101 145.221 29.8601C144.404 30.1868 143.517 30.3501 142.561 30.3501C140.974 30.3501 139.551 29.9418 138.291 29.1251C137.031 28.2851 136.027 27.1534 135.281 25.7301C134.557 24.3068 134.196 22.6851 134.196 20.8651C134.196 19.0218 134.557 17.4001 135.281 16.0001C136.027 14.5768 137.031 13.4684 138.291 12.6751C139.551 11.8584 140.951 11.4501 142.491 11.4501C143.494 11.4501 144.427 11.6134 145.291 11.9401C146.154 12.2668 146.901 12.7101 147.531 13.2701C148.184 13.8301 148.686 14.4484 149.036 15.1251C149.409 15.8018 149.596 16.4784 149.596 17.1551L148.686 16.9451V13.1301C148.686 12.7334 148.814 12.4068 149.071 12.1501C149.327 11.8701 149.666 11.7301 150.086 11.7301ZM142.876 27.7601C144.042 27.7601 145.069 27.4568 145.956 26.8501C146.866 26.2434 147.566 25.4268 148.056 24.4001C148.569 23.3501 148.826 22.1718 148.826 20.8651C148.826 19.5818 148.569 18.4268 148.056 17.4001C147.566 16.3501 146.866 15.5334 145.956 14.9501C145.069 14.3434 144.042 14.0401 142.876 14.0401C141.732 14.0401 140.706 14.3318 139.796 14.9151C138.909 15.4984 138.209 16.3034 137.696 17.3301C137.182 18.3568 136.926 19.5351 136.926 20.8651C136.926 22.1718 137.171 23.3501 137.661 24.4001C138.174 25.4268 138.874 26.2434 139.761 26.8501C140.671 27.4568 141.709 27.7601 142.876 27.7601Z" fill="#16133D"/>
<path d="M165.67 11.4501C167.256 11.4501 168.505 11.7768 169.415 12.4301C170.325 13.0834 170.966 13.9584 171.34 15.0551C171.736 16.1518 171.935 17.3768 171.935 18.7301V28.5651C171.935 28.9618 171.795 29.3001 171.515 29.5801C171.258 29.8601 170.931 30.0001 170.535 30.0001C170.138 30.0001 169.8 29.8601 169.52 29.5801C169.263 29.3001 169.135 28.9618 169.135 28.5651V18.8001C169.135 17.9134 168.995 17.1201 168.715 16.4201C168.458 15.6968 168.015 15.1251 167.385 14.7051C166.778 14.2618 165.938 14.0401 164.865 14.0401C163.885 14.0401 162.986 14.2618 162.17 14.7051C161.353 15.1251 160.7 15.6968 160.21 16.4201C159.72 17.1201 159.475 17.9134 159.475 18.8001V28.5651C159.475 28.9618 159.335 29.3001 159.055 29.5801C158.798 29.8601 158.471 30.0001 158.075 30.0001C157.678 30.0001 157.34 29.8601 157.06 29.5801C156.803 29.3001 156.675 28.9618 156.675 28.5651V13.3051C156.675 12.9084 156.803 12.5818 157.06 12.3251C157.34 12.0451 157.678 11.9051 158.075 11.9051C158.495 11.9051 158.833 12.0451 159.09 12.3251C159.346 12.5818 159.475 12.9084 159.475 13.3051V15.7901L158.775 16.5601C158.891 15.9534 159.16 15.3468 159.58 14.7401C160 14.1101 160.525 13.5501 161.155 13.0601C161.785 12.5701 162.485 12.1851 163.255 11.9051C164.025 11.6018 164.83 11.4501 165.67 11.4501Z" fill="#16133D"/>
<path d="M192.024 4.1001C192.421 4.1001 192.748 4.2401 193.004 4.5201C193.284 4.77676 193.424 5.10343 193.424 5.5001V28.5651C193.424 28.9618 193.284 29.3001 193.004 29.5801C192.748 29.8601 192.421 30.0001 192.024 30.0001C191.604 30.0001 191.266 29.8601 191.009 29.5801C190.753 29.3001 190.624 28.9618 190.624 28.5651V25.2401L191.289 24.9951C191.289 25.5551 191.114 26.1501 190.764 26.7801C190.414 27.3868 189.936 27.9584 189.329 28.4951C188.723 29.0318 187.999 29.4751 187.159 29.8251C186.343 30.1751 185.456 30.3501 184.499 30.3501C182.936 30.3501 181.513 29.9418 180.229 29.1251C178.969 28.3084 177.966 27.1884 177.219 25.7651C176.496 24.3418 176.134 22.7201 176.134 20.9001C176.134 19.0568 176.496 17.4234 177.219 16.0001C177.966 14.5768 178.969 13.4684 180.229 12.6751C181.489 11.8584 182.889 11.4501 184.429 11.4501C185.409 11.4501 186.331 11.6134 187.194 11.9401C188.058 12.2668 188.804 12.7101 189.434 13.2701C190.088 13.8301 190.601 14.4484 190.974 15.1251C191.348 15.8018 191.534 16.4784 191.534 17.1551L190.624 16.9451V5.5001C190.624 5.10343 190.753 4.77676 191.009 4.5201C191.266 4.2401 191.604 4.1001 192.024 4.1001ZM184.814 27.7601C185.981 27.7601 187.008 27.4684 187.894 26.8851C188.804 26.2784 189.504 25.4618 189.994 24.4351C190.508 23.3851 190.764 22.2068 190.764 20.9001C190.764 19.5701 190.508 18.3918 189.994 17.3651C189.504 16.3384 188.804 15.5334 187.894 14.9501C187.008 14.3434 185.981 14.0401 184.814 14.0401C183.671 14.0401 182.644 14.3434 181.734 14.9501C180.848 15.5334 180.148 16.3384 179.634 17.3651C179.121 18.3918 178.864 19.5701 178.864 20.9001C178.864 22.1834 179.121 23.3501 179.634 24.4001C180.148 25.4268 180.848 26.2434 181.734 26.8501C182.644 27.4568 183.671 27.7601 184.814 27.7601Z" fill="#16133D"/>
<path fill-rule="evenodd" clip-rule="evenodd" d="M29.0148 17C29.1638 16.9 29.3102 16.7954 29.4535 16.6861C30.8437 15.6267 31.8961 14.1814 32.4812 12.5279C33.0663 10.8744 33.1587 9.08471 32.747 7.37901C32.3353 5.67331 31.4375 4.12593 30.1639 2.92715C28.8903 1.72837 27.2965 0.930465 25.5784 0.631544C23.8604 0.332622 22.093 0.545721 20.4937 1.24463C18.8944 1.94355 17.5328 3.09781 16.5763 4.56547C16.5506 4.60502 16.5251 4.64476 16.5 4.68467C16.4749 4.64477 16.4494 4.60504 16.4237 4.56549C15.4672 3.09783 14.1056 1.94357 12.5063 1.24466C10.907 0.545744 9.13961 0.332646 7.42157 0.631567C5.70353 0.930488 4.10972 1.7284 2.83612 2.92717C1.56252 4.12595 0.664666 5.67333 0.252961 7.37903C-0.158743 9.08473 -0.0663462 10.8744 0.518791 12.5279C1.10393 14.1814 2.15629 15.6268 3.54648 16.6861C3.68983 16.7954 3.83613 16.9 3.98516 17C3.83613 17.1 3.68983 17.2046 3.54648 17.3139C2.15629 18.3732 1.10393 19.8185 0.518792 21.4721C-0.0663452 23.1256 -0.158742 24.9153 0.252962 26.621C0.664667 28.3267 1.56252 29.874 2.83612 31.0728C4.10972 32.2716 5.70354 33.0695 7.42157 33.3684C9.13961 33.6674 10.907 33.4543 12.5063 32.7553C14.1056 32.0564 15.4672 30.9022 16.4237 29.4345C16.4494 29.395 16.4749 29.3552 16.5 29.3153C16.5251 29.3552 16.5506 29.395 16.5763 29.4345C17.5328 30.9022 18.8944 32.0564 20.4937 32.7554C22.093 33.4543 23.8604 33.6674 25.5784 33.3685C27.2965 33.0695 28.8903 32.2716 30.1639 31.0728C31.4375 29.8741 32.3353 28.3267 32.747 26.621C33.1587 24.9153 33.0663 23.1256 32.4812 21.4721C31.8961 19.8186 30.8437 18.3733 29.4535 17.3139C29.3102 17.2046 29.1638 17.1 29.0148 17ZM16.491 9.50554C16.1266 9.50554 15.7927 9.36354 15.556 9.13298C15.2701 8.88127 15.0639 8.52485 14.9768 8.13604C14.8145 7.41127 14.5238 6.71792 14.1149 6.09051C13.4537 5.07592 12.5125 4.27798 11.4069 3.79483C10.3012 3.31167 9.07947 3.16436 7.8918 3.371C6.70413 3.57764 5.60233 4.12924 4.72189 4.95795C3.84146 5.78666 3.22077 6.85635 2.93616 8.0355C2.65155 9.21464 2.71543 10.4518 3.11993 11.5949C3.52443 12.738 4.25193 13.7371 5.21296 14.4695C5.80272 14.9189 6.46465 15.2558 7.16599 15.4679C7.52553 15.5766 7.84985 15.7873 8.08123 16.0638C8.2829 16.2807 8.41481 16.5733 8.43649 16.8974C8.4388 16.9319 8.43981 16.9661 8.43957 17.0001C8.43981 17.034 8.4388 17.0682 8.43649 17.1026C8.41481 17.4267 8.2829 17.7193 8.08124 17.9362C7.84986 18.2127 7.52554 18.4234 7.16599 18.5321C6.46465 18.7442 5.80272 19.0811 5.21296 19.5305C4.25193 20.2629 3.52443 21.262 3.11993 22.4051C2.71543 23.5482 2.65155 24.7854 2.93616 25.9645C3.22077 27.1436 3.84146 28.2133 4.72189 29.0421C5.60233 29.8708 6.70413 30.4224 7.8918 30.629C9.07947 30.8356 10.3012 30.6883 11.4069 30.2052C12.5125 29.722 13.4537 28.9241 14.1149 27.9095C14.5238 27.2821 14.8145 26.5887 14.9768 25.864C15.0639 25.4751 15.2701 25.1187 15.556 24.867C15.7927 24.6365 16.1266 24.4945 16.491 24.4945L16.4981 24.4945L16.509 24.4944C16.8737 24.4944 17.2078 24.6366 17.4445 24.8675C17.7301 25.1192 17.9361 25.4754 18.0232 25.864C18.1855 26.5887 18.4762 27.2821 18.8851 27.9095C19.5463 28.9241 20.4875 29.722 21.5931 30.2052C22.6988 30.6884 23.9205 30.8357 25.1082 30.629C26.2959 30.4224 27.3977 29.8708 28.2781 29.0421C29.1585 28.2134 29.7792 27.1437 30.0638 25.9645C30.3484 24.7854 30.2846 23.5482 29.8801 22.4051C29.4756 21.262 28.7481 20.2629 27.787 19.5305C27.1973 19.0811 26.5354 18.7442 25.834 18.5321C25.4743 18.4233 25.1498 18.2125 24.9184 17.9358C24.7169 17.7189 24.5852 17.4265 24.5635 17.1026C24.5612 17.0681 24.5602 17.0338 24.5604 16.9999C24.5602 16.966 24.5612 16.9318 24.5635 16.8974C24.5852 16.5735 24.7169 16.2811 24.9184 16.0643C25.1498 15.7875 25.4743 15.5767 25.834 15.4679C26.5354 15.2558 27.1973 14.9189 27.787 14.4695C28.7481 13.7371 29.4756 12.738 29.8801 11.5949C30.2846 10.4518 30.3484 9.21462 30.0638 8.03548C29.7792 6.85633 29.1585 5.78663 28.2781 4.95792C27.3977 4.12921 26.2959 3.57762 25.1082 3.37098C23.9205 3.16433 22.6988 3.31165 21.5931 3.79481C20.4875 4.27796 19.5463 5.0759 18.8851 6.09048C18.4762 6.7179 18.1855 7.41125 18.0232 8.13602C17.9361 8.52459 17.7301 8.88082 17.4445 9.13251C17.2078 9.36336 16.8737 9.50557 16.509 9.50557L16.4981 9.50552L16.491 9.50554Z" fill="#52C29D"/>
</svg>
