<svg   xmlns="http://www.w3.org/2000/svg">
    <symbol id="cookie" width="30" height="30" viewBox="0 0 30 30">
        <path d="M15 0C6.72938 0 0 6.71218 0 14.9617C0 22.968 6.285 29.525 14.3081 29.8897L16.7231 30L11.6175 24.9074C11.0869 24.3782 10.7944 23.6731 10.7944 22.9231C10.7944 22.1732 11.0869 21.47 11.6175 20.9388C12.6788 19.8803 14.5331 19.8803 15.5944 20.9388L22.5675 27.8941L23.205 27.4771C27.4613 24.698 30 20.0187 30 14.9617C30 6.71218 23.2706 0 15 0ZM22.8 25.4816L16.9219 19.6185C15.1537 17.853 12.0619 17.853 10.2937 19.6185C9.40875 20.5012 8.92125 21.6757 8.92125 22.925C8.92125 24.1743 9.40875 25.3488 10.2937 26.2315L11.6831 27.6174C6.00937 26.153 1.875 21.0342 1.875 14.9617C1.875 7.74266 7.7625 1.87021 15 1.87021C22.2375 1.87021 28.125 7.74266 28.125 14.9617C28.125 19.1322 26.1488 23.0129 22.8 25.4816ZM20.625 11.2212C18.5569 11.2212 16.875 12.8988 16.875 14.9617C16.875 17.0245 18.5569 18.7021 20.625 18.7021C22.6931 18.7021 24.375 17.0245 24.375 14.9617C24.375 12.8988 22.6931 11.2212 20.625 11.2212ZM20.625 16.8319C19.5919 16.8319 18.75 15.9921 18.75 14.9617C18.75 13.9312 19.5919 13.0915 20.625 13.0915C21.6581 13.0915 22.5 13.9312 22.5 14.9617C22.5 15.9921 21.6581 16.8319 20.625 16.8319ZM15 10.2861C13.4475 10.2861 12.1875 9.03123 12.1875 7.48083C12.1875 5.93043 13.4475 4.67552 15 4.67552C16.5544 4.67552 17.8125 5.93043 17.8125 7.48083C17.8125 9.03123 16.5544 10.2861 15 10.2861ZM9.84375 10.0823C9.84375 11.1146 9.00375 11.9525 7.96875 11.9525C6.93375 11.9525 6.09375 11.1146 6.09375 10.0823C6.09375 9.04993 6.93375 8.21208 7.96875 8.21208C9.00375 8.21208 9.84375 9.04806 9.84375 10.0823Z" fill="#181818"/>
    </symbol>
    
    <symbol id="cup" width="31" height="30" viewBox="0 0 31 30" >
        <g clip-path="url(#clip0_203_129)">
        <path d="M30.0797 17.6598L14.8613 2.517L14.6314 2.74268C13.485 1.62105 11.968 1.0017 10.3531 1C10.3531 1 10.3531 1 10.3514 1C8.72455 1 7.19208 1.62784 6.04058 2.76644C4.88736 3.90504 4.2524 5.41864 4.2524 7.03236C4.2524 8.62911 4.8805 10.1291 6.01484 11.2627L2.22569 15.011C1.70572 15.5269 1.41913 16.209 1.41913 16.9336C1.41913 17.6615 1.704 18.342 2.22055 18.851L10.4767 27.0961C10.995 27.6086 11.6848 27.8919 12.4176 27.8919C13.1538 27.8919 13.8437 27.6069 14.3619 27.0927L23.9 17.6615L30.0797 17.6598ZM5.9685 7.03066C5.9685 5.8734 6.42498 4.78571 7.25386 3.96612C8.08273 3.14823 9.18104 2.69687 10.3514 2.69687C10.3531 2.69687 10.3531 2.69687 10.3531 2.69687C11.5098 2.69687 12.5944 3.14145 13.4181 3.94237L7.22983 10.063C6.41812 9.24677 5.9685 8.17435 5.9685 7.03066ZM13.1452 25.8947C12.9513 26.0865 12.6905 26.1951 12.4159 26.1951C12.1413 26.1951 11.8822 26.0899 11.6917 25.8998L5.45196 19.6655H19.445L13.1452 25.8947ZM21.1611 17.9687H3.7513L3.43726 17.6531C3.24162 17.4613 3.13523 17.2068 3.13523 16.9353C3.13523 16.6621 3.24334 16.4059 3.43897 16.2107L14.8579 4.91976L25.9576 15.9647L23.1878 15.9664L21.1611 17.9687ZM28.3413 21.2928L27.6428 20.2679L26.9255 21.2826C26.378 22.0581 24.5864 24.695 24.5864 26.0305C24.5864 27.668 25.9336 29 27.5896 29C29.2456 29 30.5928 27.6663 30.5928 26.0288C30.5928 24.7018 28.8698 22.0683 28.3413 21.2928ZM27.5896 27.3014C26.8809 27.3014 26.3025 26.7296 26.3025 26.0288C26.3025 25.6215 26.9015 24.4677 27.6171 23.3291C28.3035 24.466 28.8767 25.6181 28.8767 26.0288C28.8767 26.7296 28.2984 27.3014 27.5896 27.3014Z" fill="#181818"/>
        </g>
        <defs>
        <clipPath id="clip0_203_129">
        <rect width="30.1796" height="30" fill="white" transform="translate(0.413147)"/>
        </clipPath>
        </defs>
    </symbol>
    <symbol id="valik" width="30" height="30" viewBox="0 0 30 30">
        <g clip-path="url(#clip0_203_84)">
        <path d="M28.125 3.52941V0H3.75V3.52941H2.7825C1.24875 3.52941 0 4.72059 0 6.18529V11.4618C0 12.9265 1.24875 14.1176 2.7825 14.1176H14.0775C14.5931 14.1176 15.015 14.5147 15.015 15V17.6471H13.125V30H18.75V17.6471H16.89V15C16.89 13.5406 15.6281 12.3529 14.0775 12.3529H2.7825C2.28375 12.3529 1.875 11.9524 1.875 11.4618V6.18529C1.875 5.69471 2.28375 5.29412 2.7825 5.29412H3.75V10.5882H28.125V5.29412H30V3.52941H28.125ZM16.875 28.2353H15V19.4118H16.875V28.2353ZM26.25 8.82353H5.625V1.76471H26.25V8.82353Z" fill="#181818"/>
        </g>
        <defs>
        <clipPath id="clip0_203_84">
        <rect width="30" height="30" fill="white"/>
        </clipPath>
        </defs>
    </symbol>
        
    
</svg>
