<svg width="170" height="60" viewBox="0 0 170 60" fill="none" xmlns="http://www.w3.org/2000/svg">
    <path d="M35.5363 9.59972L30.6169 14.4485L23.1114 6.90328L28.0308 2.05446L35.5363 9.59972Z" fill="url(#paint0_linear_10711_77)"/>
    <path d="M57.6433 47.2858L47.6304 57.1541L33.0107 42.458L43.0238 32.5897L57.6433 47.2858Z" fill="#2E8FE7"/>
    <path d="M35.3244 49.9566L27.7029 57.4678L22.7906 52.5299L30.4123 45.0187L35.3244 49.9566Z" fill="#282528"/>
    <path d="M48.654 27.0409L50.7918 24.9342L55.7039 29.8721L50.7837 34.721L48.0431 31.9661L50.8254 29.2239L48.654 27.0409ZM48.0431 31.9661L45.8716 29.7831L48.654 27.0409L50.8254 29.2239L48.0431 31.9661Z" fill="#1578D3"/>
    <path d="M7.5364 37.1955L0.0304413 29.6503L7.65187 22.1391L12.9131 27.4281L15.1579 29.6845L7.5364 37.1955Z" fill="#2FD6FF"/>
    <path d="M27.7695 17.2554L17.7563 27.1237L3.18018 12.4712L13.1934 2.60291L27.7695 17.2554Z" fill="#1578D3"/>
    <path d="M30.6169 14.4485L23.1114 6.90328L28.0308 2.05446L35.5373 9.59985L30.6169 14.4485Z" fill="#94EAFF"/>
    <path d="M13.6184 58.795L1.31651 46.3358L45.6131 2.58881L58.3333 14.7297L13.6184 58.795Z" fill="#18B5DC"/>
    <path d="M74.96 20.6H76.4V44H74.96V20.6ZM70.76 20.6H72.2V44H70.76V20.6Z" fill="#282528"/>
    <path d="M79.6421 20.6H97.6721V22.04H79.6421V20.6ZM89.9921 23.72H97.6721V25.16H91.4321V44H89.9921V23.72ZM85.8521 25.16H79.6421V23.72H87.2921V44H85.8521V25.16Z" fill="#282528"/>
    <path d="M104.896 20.6H106.336V39.11H116.266V40.55H104.896V20.6ZM100.786 20.6H102.226V42.56H116.266V44H100.786V20.6Z" fill="#282528"/>
    <path d="M124.12 20.6H125.56V44H124.12V20.6ZM119.92 20.6H121.36V44H119.92V20.6Z" fill="#282528"/>
    <path d="M130.962 20.6H146.592V22.04H132.402V44H130.962V20.6ZM135.042 23.72H146.592V25.16H136.482V30.62H145.302V32.06H135.042V23.72ZM135.042 33.62H145.302V35.06H136.482V44H135.042V33.62Z" fill="#282528"/>
    <path d="M150.298 20.6H166.498V22.04H151.738V42.56H167.098V44H150.298V20.6ZM154.318 23.72H166.498V25.16H155.758V29.78H164.968V31.22H154.318V23.72ZM154.318 32.81H164.968V34.25H155.758V39.44H167.098V40.88H154.318V32.81Z" fill="#282528"/>
    <defs>
    <linearGradient id="paint0_linear_10711_77" x1="-648.439" y1="-62.4468" x2="-378.469" y2="552.733" gradientUnits="userSpaceOnUse">
    <stop stop-color="#C06FBB"/>
    <stop offset="1" stop-color="#6E4D9B"/>
    </linearGradient>
    </defs>
</svg>
    